<svg id="Calque_1" data-name="Calque 1" xmlns="http://www.w3.org/2000/svg" viewBox="0 0 20.46 24"><defs><style>.cls-1,.cls-2,.cls-3{fill:#1d1d1b;}.cls-2{opacity:0.2;}.cls-3{opacity:0.4;}</style></defs><path class="cls-1" d="M2.29.11,12.55,9.37a3.64,3.64,0,0,1-.06,5.45l-1.11,1,2.79,2.53,2.2-2a5.74,5.74,0,0,0,0-8.58L7.87.11Z" transform="translate(-2.17 0)"/><path class="cls-1" d="M7.86,24H2.28l10.65-9.62a7.8,7.8,0,0,0,2.25-3.52,5.9,5.9,0,0,0-.12-4.34l1.36,1.19a5.77,5.77,0,0,1,0,8.57Z" transform="translate(-2.17 0)"/><path class="cls-2" d="M7.86,24h0L15,17a7,7,0,0,0,2.18-4.31,7.77,7.77,0,0,0-.71-5v0a5.77,5.77,0,0,1,0,8.57Z" transform="translate(-2.17 0)"/><polyline class="cls-2" points="7.49 6.76 7.75 6.53 0.55 0 0 0 7.49 6.76"/><path class="cls-3" d="M2.7,24H2.28l10.65-9.62a7.8,7.8,0,0,0,2.25-3.52,5.9,5.9,0,0,0-.12-4.34l.41.36c.91,1.92.26,5.36-2.28,7.65Z" transform="translate(-2.17 0)"/><polyline class="cls-1" points="13.1 17.33 20.45 23.98 14.88 23.98 10.27 19.87 13.09 17.33 13.1 17.33"/><path class="cls-1" d="M12.46,14.81l-.09-.09a3.64,3.64,0,0,1,.05-5.45l1.11-1L10.75,5.78l-2.14,2a5.76,5.76,0,0,0-.09,8.61l1.11,1Z" transform="translate(-2.17 0)"/><polygon class="cls-2" points="12.84 17.56 19.94 24 20.45 23.98 13.1 17.33 13.09 17.33 12.84 17.56 12.84 17.56"/><path class="cls-1" d="M9.73,17.27a5.93,5.93,0,0,1,0-4A7.69,7.69,0,0,1,12,9.71L22.63.09H17.06L8.5,7.81a5.77,5.77,0,0,0,0,8.57l1.14,1Z" transform="translate(-2.17 0)"/><path class="cls-2" d="M17.06.09h0L10,7.08a7,7,0,0,0-2.18,4.31,7.91,7.91,0,0,0,.71,5v0a5.77,5.77,0,0,1,0-8.57Z" transform="translate(-2.17 0)"/><path class="cls-3" d="M9.73,17.27a5.93,5.93,0,0,1,0-4A7.69,7.69,0,0,1,12,9.71L22.63.09h-.42L11.72,9.56c-2.54,2.29-3.24,5.68-2.33,7.6l.24.21Z" transform="translate(-2.17 0)"/><path class="cls-1" d="M2.29.11,12.55,9.37a3.64,3.64,0,0,1-.06,5.45l-1.11,1,2.79,2.53,2.2-2a5.74,5.74,0,0,0,0-8.58L7.87.11Z" transform="translate(-2.17 0)"/><path class="cls-1" d="M7.86,24H2.28l10.65-9.62a7.8,7.8,0,0,0,2.25-3.52,5.9,5.9,0,0,0-.12-4.34l1.36,1.19a5.77,5.77,0,0,1,0,8.57Z" transform="translate(-2.17 0)"/><path class="cls-2" d="M7.86,24h0L15,17a7,7,0,0,0,2.18-4.31,7.77,7.77,0,0,0-.71-5v0a5.77,5.77,0,0,1,0,8.57Z" transform="translate(-2.17 0)"/><polyline class="cls-2" points="7.49 6.76 7.75 6.53 0.55 0 0 0 7.49 6.76"/><path class="cls-3" d="M2.7,24H2.28l10.65-9.62a7.8,7.8,0,0,0,2.25-3.52,5.9,5.9,0,0,0-.12-4.34l.41.36c.91,1.92.26,5.36-2.28,7.65Z" transform="translate(-2.17 0)"/><polyline class="cls-1" points="13.1 17.33 20.45 23.98 14.88 23.98 10.27 19.87 13.09 17.33 13.1 17.33"/><path class="cls-1" d="M12.46,14.81l-.09-.09a3.64,3.64,0,0,1,.05-5.45l1.11-1L10.75,5.78l-2.14,2a5.76,5.76,0,0,0-.09,8.61l1.11,1Z" transform="translate(-2.17 0)"/><polygon class="cls-2" points="12.84 17.56 19.94 24 20.45 23.98 13.1 17.33 13.09 17.33 12.84 17.56 12.84 17.56"/><path class="cls-1" d="M9.73,17.27a5.93,5.93,0,0,1,0-4A7.69,7.69,0,0,1,12,9.71L22.63.09H17.06L8.5,7.81a5.77,5.77,0,0,0,0,8.57l1.14,1Z" transform="translate(-2.17 0)"/><path class="cls-2" d="M17.06.09h0L10,7.08a7,7,0,0,0-2.18,4.31,7.91,7.91,0,0,0,.71,5v0a5.77,5.77,0,0,1,0-8.57Z" transform="translate(-2.17 0)"/><path class="cls-3" d="M9.73,17.27a5.93,5.93,0,0,1,0-4A7.69,7.69,0,0,1,12,9.71L22.63.09h-.42L11.72,9.56c-2.54,2.29-3.24,5.68-2.33,7.6l.24.21Z" transform="translate(-2.17 0)"/></svg>